<mxfile host="app.diagrams.net" modified="2024-06-07T01:11:01.708Z" agent="Mozilla/5.0 (Windows NT 10.0; Win64; x64) AppleWebKit/537.36 (KHTML, like Gecko) Chrome/125.0.0.0 Safari/537.36" etag="OaSIqzcKTJN3e8TQ1k8F" version="24.5.1" type="device">
  <diagram name="페이지-1" id="H6KYMKOUa4VaeGSqB9-n">
    <mxGraphModel dx="1154" dy="514" grid="1" gridSize="10" guides="1" tooltips="1" connect="1" arrows="1" fold="1" page="1" pageScale="1" pageWidth="827" pageHeight="1169" math="0" shadow="0">
      <root>
        <mxCell id="0" />
        <mxCell id="1" parent="0" />
        <mxCell id="PnDJu6VVN8CFx2nFhvfO-1" value="계정 생성" style="swimlane;whiteSpace=wrap;html=1;" vertex="1" parent="1">
          <mxGeometry x="40" y="40" width="570" height="520" as="geometry" />
        </mxCell>
        <mxCell id="PnDJu6VVN8CFx2nFhvfO-2" value="Client" style="shape=umlLifeline;perimeter=lifelinePerimeter;whiteSpace=wrap;html=1;container=1;dropTarget=0;collapsible=0;recursiveResize=0;outlineConnect=0;portConstraint=eastwest;newEdgeStyle={&quot;curved&quot;:0,&quot;rounded&quot;:0};" vertex="1" parent="PnDJu6VVN8CFx2nFhvfO-1">
          <mxGeometry x="50" y="50" width="100" height="460" as="geometry" />
        </mxCell>
        <mxCell id="PnDJu6VVN8CFx2nFhvfO-5" value="" style="html=1;points=[[0,0,0,0,5],[0,1,0,0,-5],[1,0,0,0,5],[1,1,0,0,-5]];perimeter=orthogonalPerimeter;outlineConnect=0;targetShapes=umlLifeline;portConstraint=eastwest;newEdgeStyle={&quot;curved&quot;:0,&quot;rounded&quot;:0};" vertex="1" parent="PnDJu6VVN8CFx2nFhvfO-2">
          <mxGeometry x="45" y="60" width="10" height="90" as="geometry" />
        </mxCell>
        <mxCell id="PnDJu6VVN8CFx2nFhvfO-6" value="" style="html=1;points=[[0,0,0,0,5],[0,1,0,0,-5],[1,0,0,0,5],[1,1,0,0,-5]];perimeter=orthogonalPerimeter;outlineConnect=0;targetShapes=umlLifeline;portConstraint=eastwest;newEdgeStyle={&quot;curved&quot;:0,&quot;rounded&quot;:0};" vertex="1" parent="PnDJu6VVN8CFx2nFhvfO-2">
          <mxGeometry x="50" y="90" width="10" height="40" as="geometry" />
        </mxCell>
        <mxCell id="PnDJu6VVN8CFx2nFhvfO-7" value="사용자 입력 확인" style="html=1;align=left;spacingLeft=2;endArrow=block;rounded=0;edgeStyle=orthogonalEdgeStyle;curved=0;rounded=0;" edge="1" target="PnDJu6VVN8CFx2nFhvfO-6" parent="PnDJu6VVN8CFx2nFhvfO-2">
          <mxGeometry x="-0.0028" relative="1" as="geometry">
            <mxPoint x="55" y="70" as="sourcePoint" />
            <Array as="points">
              <mxPoint x="85" y="100" />
            </Array>
            <mxPoint as="offset" />
          </mxGeometry>
        </mxCell>
        <mxCell id="PnDJu6VVN8CFx2nFhvfO-32" value="" style="html=1;points=[[0,0,0,0,5],[0,1,0,0,-5],[1,0,0,0,5],[1,1,0,0,-5]];perimeter=orthogonalPerimeter;outlineConnect=0;targetShapes=umlLifeline;portConstraint=eastwest;newEdgeStyle={&quot;curved&quot;:0,&quot;rounded&quot;:0};" vertex="1" parent="PnDJu6VVN8CFx2nFhvfO-2">
          <mxGeometry x="45" y="410" width="10" height="30" as="geometry" />
        </mxCell>
        <mxCell id="PnDJu6VVN8CFx2nFhvfO-3" value="Server" style="shape=umlLifeline;perimeter=lifelinePerimeter;whiteSpace=wrap;html=1;container=1;dropTarget=0;collapsible=0;recursiveResize=0;outlineConnect=0;portConstraint=eastwest;newEdgeStyle={&quot;curved&quot;:0,&quot;rounded&quot;:0};" vertex="1" parent="PnDJu6VVN8CFx2nFhvfO-1">
          <mxGeometry x="250" y="50" width="100" height="460" as="geometry" />
        </mxCell>
        <mxCell id="PnDJu6VVN8CFx2nFhvfO-8" value="" style="html=1;points=[[0,0,0,0,5],[0,1,0,0,-5],[1,0,0,0,5],[1,1,0,0,-5]];perimeter=orthogonalPerimeter;outlineConnect=0;targetShapes=umlLifeline;portConstraint=eastwest;newEdgeStyle={&quot;curved&quot;:0,&quot;rounded&quot;:0};" vertex="1" parent="PnDJu6VVN8CFx2nFhvfO-3">
          <mxGeometry x="45" y="140" width="10" height="100" as="geometry" />
        </mxCell>
        <mxCell id="PnDJu6VVN8CFx2nFhvfO-11" value="" style="html=1;points=[[0,0,0,0,5],[0,1,0,0,-5],[1,0,0,0,5],[1,1,0,0,-5]];perimeter=orthogonalPerimeter;outlineConnect=0;targetShapes=umlLifeline;portConstraint=eastwest;newEdgeStyle={&quot;curved&quot;:0,&quot;rounded&quot;:0};" vertex="1" parent="PnDJu6VVN8CFx2nFhvfO-3">
          <mxGeometry x="50" y="180" width="10" height="40" as="geometry" />
        </mxCell>
        <mxCell id="PnDJu6VVN8CFx2nFhvfO-12" value="사용자 입력 확인" style="html=1;align=left;spacingLeft=2;endArrow=block;rounded=0;edgeStyle=orthogonalEdgeStyle;curved=0;rounded=0;" edge="1" parent="PnDJu6VVN8CFx2nFhvfO-3" target="PnDJu6VVN8CFx2nFhvfO-11">
          <mxGeometry relative="1" as="geometry">
            <mxPoint x="55" y="160" as="sourcePoint" />
            <Array as="points">
              <mxPoint x="85" y="190" />
            </Array>
          </mxGeometry>
        </mxCell>
        <mxCell id="PnDJu6VVN8CFx2nFhvfO-16" value="" style="html=1;points=[[0,0,0,0,5],[0,1,0,0,-5],[1,0,0,0,5],[1,1,0,0,-5]];perimeter=orthogonalPerimeter;outlineConnect=0;targetShapes=umlLifeline;portConstraint=eastwest;newEdgeStyle={&quot;curved&quot;:0,&quot;rounded&quot;:0};" vertex="1" parent="PnDJu6VVN8CFx2nFhvfO-3">
          <mxGeometry x="45" y="260" width="10" height="100" as="geometry" />
        </mxCell>
        <mxCell id="PnDJu6VVN8CFx2nFhvfO-29" value="" style="html=1;points=[[0,0,0,0,5],[0,1,0,0,-5],[1,0,0,0,5],[1,1,0,0,-5]];perimeter=orthogonalPerimeter;outlineConnect=0;targetShapes=umlLifeline;portConstraint=eastwest;newEdgeStyle={&quot;curved&quot;:0,&quot;rounded&quot;:0};" vertex="1" parent="PnDJu6VVN8CFx2nFhvfO-3">
          <mxGeometry x="45" y="380" width="10" height="40" as="geometry" />
        </mxCell>
        <mxCell id="PnDJu6VVN8CFx2nFhvfO-30" style="edgeStyle=orthogonalEdgeStyle;rounded=0;orthogonalLoop=1;jettySize=auto;html=1;curved=0;exitX=0;exitY=1;exitDx=0;exitDy=-5;exitPerimeter=0;entryX=1;entryY=0;entryDx=0;entryDy=5;entryPerimeter=0;" edge="1" parent="PnDJu6VVN8CFx2nFhvfO-3" source="PnDJu6VVN8CFx2nFhvfO-29">
          <mxGeometry relative="1" as="geometry">
            <mxPoint x="-145" y="415" as="targetPoint" />
          </mxGeometry>
        </mxCell>
        <mxCell id="PnDJu6VVN8CFx2nFhvfO-31" value="계정 생성&lt;div&gt;성공 응답&lt;/div&gt;" style="edgeLabel;html=1;align=center;verticalAlign=middle;resizable=0;points=[];" vertex="1" connectable="0" parent="PnDJu6VVN8CFx2nFhvfO-30">
          <mxGeometry x="-0.0446" y="1" relative="1" as="geometry">
            <mxPoint as="offset" />
          </mxGeometry>
        </mxCell>
        <mxCell id="PnDJu6VVN8CFx2nFhvfO-4" value="Database" style="shape=umlLifeline;perimeter=lifelinePerimeter;whiteSpace=wrap;html=1;container=1;dropTarget=0;collapsible=0;recursiveResize=0;outlineConnect=0;portConstraint=eastwest;newEdgeStyle={&quot;curved&quot;:0,&quot;rounded&quot;:0};" vertex="1" parent="PnDJu6VVN8CFx2nFhvfO-1">
          <mxGeometry x="450" y="50" width="100" height="460" as="geometry" />
        </mxCell>
        <mxCell id="PnDJu6VVN8CFx2nFhvfO-13" value="" style="html=1;points=[[0,0,0,0,5],[0,1,0,0,-5],[1,0,0,0,5],[1,1,0,0,-5]];perimeter=orthogonalPerimeter;outlineConnect=0;targetShapes=umlLifeline;portConstraint=eastwest;newEdgeStyle={&quot;curved&quot;:0,&quot;rounded&quot;:0};" vertex="1" parent="PnDJu6VVN8CFx2nFhvfO-4">
          <mxGeometry x="45" y="230" width="10" height="40" as="geometry" />
        </mxCell>
        <mxCell id="PnDJu6VVN8CFx2nFhvfO-23" value="" style="html=1;points=[[0,0,0,0,5],[0,1,0,0,-5],[1,0,0,0,5],[1,1,0,0,-5]];perimeter=orthogonalPerimeter;outlineConnect=0;targetShapes=umlLifeline;portConstraint=eastwest;newEdgeStyle={&quot;curved&quot;:0,&quot;rounded&quot;:0};" vertex="1" parent="PnDJu6VVN8CFx2nFhvfO-4">
          <mxGeometry x="45" y="350" width="10" height="40" as="geometry" />
        </mxCell>
        <mxCell id="PnDJu6VVN8CFx2nFhvfO-24" style="edgeStyle=orthogonalEdgeStyle;rounded=0;orthogonalLoop=1;jettySize=auto;html=1;curved=0;exitX=1;exitY=1;exitDx=0;exitDy=-5;exitPerimeter=0;entryX=0;entryY=0;entryDx=0;entryDy=5;entryPerimeter=0;" edge="1" parent="PnDJu6VVN8CFx2nFhvfO-4" target="PnDJu6VVN8CFx2nFhvfO-23">
          <mxGeometry relative="1" as="geometry">
            <mxPoint x="-145" y="355" as="sourcePoint" />
          </mxGeometry>
        </mxCell>
        <mxCell id="PnDJu6VVN8CFx2nFhvfO-25" value="계정 생성" style="edgeLabel;html=1;align=center;verticalAlign=middle;resizable=0;points=[];" vertex="1" connectable="0" parent="PnDJu6VVN8CFx2nFhvfO-24">
          <mxGeometry x="-0.0206" y="-1" relative="1" as="geometry">
            <mxPoint as="offset" />
          </mxGeometry>
        </mxCell>
        <mxCell id="PnDJu6VVN8CFx2nFhvfO-26" style="edgeStyle=orthogonalEdgeStyle;rounded=0;orthogonalLoop=1;jettySize=auto;html=1;curved=0;exitX=0;exitY=1;exitDx=0;exitDy=-5;exitPerimeter=0;entryX=1;entryY=0;entryDx=0;entryDy=5;entryPerimeter=0;" edge="1" parent="PnDJu6VVN8CFx2nFhvfO-4" source="PnDJu6VVN8CFx2nFhvfO-23">
          <mxGeometry relative="1" as="geometry">
            <mxPoint x="-145" y="385" as="targetPoint" />
          </mxGeometry>
        </mxCell>
        <mxCell id="PnDJu6VVN8CFx2nFhvfO-27" value="계정 정보 응답" style="edgeLabel;html=1;align=center;verticalAlign=middle;resizable=0;points=[];" vertex="1" connectable="0" parent="PnDJu6VVN8CFx2nFhvfO-26">
          <mxGeometry x="-0.0446" y="1" relative="1" as="geometry">
            <mxPoint as="offset" />
          </mxGeometry>
        </mxCell>
        <mxCell id="PnDJu6VVN8CFx2nFhvfO-9" style="edgeStyle=orthogonalEdgeStyle;rounded=0;orthogonalLoop=1;jettySize=auto;html=1;curved=0;exitX=1;exitY=1;exitDx=0;exitDy=-5;exitPerimeter=0;entryX=0;entryY=0;entryDx=0;entryDy=5;entryPerimeter=0;" edge="1" parent="PnDJu6VVN8CFx2nFhvfO-1" source="PnDJu6VVN8CFx2nFhvfO-5" target="PnDJu6VVN8CFx2nFhvfO-8">
          <mxGeometry relative="1" as="geometry" />
        </mxCell>
        <mxCell id="PnDJu6VVN8CFx2nFhvfO-10" value="계정 생성&lt;br&gt;/user/regist" style="edgeLabel;html=1;align=center;verticalAlign=middle;resizable=0;points=[];" vertex="1" connectable="0" parent="PnDJu6VVN8CFx2nFhvfO-9">
          <mxGeometry x="-0.0506" relative="1" as="geometry">
            <mxPoint as="offset" />
          </mxGeometry>
        </mxCell>
        <mxCell id="PnDJu6VVN8CFx2nFhvfO-14" style="edgeStyle=orthogonalEdgeStyle;rounded=0;orthogonalLoop=1;jettySize=auto;html=1;curved=0;exitX=1;exitY=1;exitDx=0;exitDy=-5;exitPerimeter=0;entryX=0;entryY=0;entryDx=0;entryDy=5;entryPerimeter=0;" edge="1" parent="PnDJu6VVN8CFx2nFhvfO-1" source="PnDJu6VVN8CFx2nFhvfO-8" target="PnDJu6VVN8CFx2nFhvfO-13">
          <mxGeometry relative="1" as="geometry" />
        </mxCell>
        <mxCell id="PnDJu6VVN8CFx2nFhvfO-15" value="계정 조회" style="edgeLabel;html=1;align=center;verticalAlign=middle;resizable=0;points=[];" vertex="1" connectable="0" parent="PnDJu6VVN8CFx2nFhvfO-14">
          <mxGeometry x="-0.0206" y="-1" relative="1" as="geometry">
            <mxPoint as="offset" />
          </mxGeometry>
        </mxCell>
        <mxCell id="PnDJu6VVN8CFx2nFhvfO-17" style="edgeStyle=orthogonalEdgeStyle;rounded=0;orthogonalLoop=1;jettySize=auto;html=1;curved=0;exitX=0;exitY=1;exitDx=0;exitDy=-5;exitPerimeter=0;entryX=1;entryY=0;entryDx=0;entryDy=5;entryPerimeter=0;" edge="1" parent="PnDJu6VVN8CFx2nFhvfO-1" source="PnDJu6VVN8CFx2nFhvfO-13" target="PnDJu6VVN8CFx2nFhvfO-16">
          <mxGeometry relative="1" as="geometry" />
        </mxCell>
        <mxCell id="PnDJu6VVN8CFx2nFhvfO-18" value="계정 정보 응답" style="edgeLabel;html=1;align=center;verticalAlign=middle;resizable=0;points=[];" vertex="1" connectable="0" parent="PnDJu6VVN8CFx2nFhvfO-17">
          <mxGeometry x="-0.0446" y="1" relative="1" as="geometry">
            <mxPoint as="offset" />
          </mxGeometry>
        </mxCell>
        <mxCell id="PnDJu6VVN8CFx2nFhvfO-19" value="계정 중복" style="shape=umlFrame;whiteSpace=wrap;html=1;pointerEvents=0;" vertex="1" parent="PnDJu6VVN8CFx2nFhvfO-1">
          <mxGeometry x="20" y="330" width="500" height="60" as="geometry" />
        </mxCell>
        <mxCell id="PnDJu6VVN8CFx2nFhvfO-20" value="" style="html=1;points=[[0,0,0,0,5],[0,1,0,0,-5],[1,0,0,0,5],[1,1,0,0,-5]];perimeter=orthogonalPerimeter;outlineConnect=0;targetShapes=umlLifeline;portConstraint=eastwest;newEdgeStyle={&quot;curved&quot;:0,&quot;rounded&quot;:0};" vertex="1" parent="PnDJu6VVN8CFx2nFhvfO-1">
          <mxGeometry x="95" y="350" width="10" height="30" as="geometry" />
        </mxCell>
        <mxCell id="PnDJu6VVN8CFx2nFhvfO-21" style="edgeStyle=orthogonalEdgeStyle;rounded=0;orthogonalLoop=1;jettySize=auto;html=1;curved=0;entryX=1;entryY=0;entryDx=0;entryDy=5;entryPerimeter=0;" edge="1" parent="PnDJu6VVN8CFx2nFhvfO-1" source="PnDJu6VVN8CFx2nFhvfO-16" target="PnDJu6VVN8CFx2nFhvfO-20">
          <mxGeometry relative="1" as="geometry">
            <Array as="points">
              <mxPoint x="250" y="355" />
              <mxPoint x="250" y="355" />
            </Array>
          </mxGeometry>
        </mxCell>
        <mxCell id="PnDJu6VVN8CFx2nFhvfO-22" value="계정 중복&lt;div&gt;에러 응답&lt;/div&gt;" style="edgeLabel;html=1;align=center;verticalAlign=middle;resizable=0;points=[];" vertex="1" connectable="0" parent="PnDJu6VVN8CFx2nFhvfO-21">
          <mxGeometry x="0.0361" y="-2" relative="1" as="geometry">
            <mxPoint as="offset" />
          </mxGeometry>
        </mxCell>
        <mxCell id="PnDJu6VVN8CFx2nFhvfO-34" value="계정 없음" style="shape=umlFrame;whiteSpace=wrap;html=1;pointerEvents=0;" vertex="1" parent="PnDJu6VVN8CFx2nFhvfO-1">
          <mxGeometry x="20" y="390" width="500" height="110" as="geometry" />
        </mxCell>
      </root>
    </mxGraphModel>
  </diagram>
</mxfile>
